solid OpenSCAD_Model
  facet normal -1 0 0
    outer loop
      vertex -7.5 -3 0
      vertex -7.5 -3 20
      vertex -7.5 0 0
    endloop
  endfacet
  facet normal -1 0 0
    outer loop
      vertex -7.5 0 0
      vertex -7.5 -3 20
      vertex -7.5 0 20
    endloop
  endfacet
  facet normal 0 -1 0
    outer loop
      vertex -7.5 -3 20
      vertex -7.5 -3 0
      vertex 7.5 -3 0
    endloop
  endfacet
  facet normal 0 -1 0
    outer loop
      vertex 7.5 -3 20
      vertex -7.5 -3 20
      vertex 7.5 -3 0
    endloop
  endfacet
  facet normal 0 0 -1
    outer loop
      vertex -7.5 -3 0
      vertex -7.5 0 0
      vertex 7.5 -3 0
    endloop
  endfacet
  facet normal 0 0 -1
    outer loop
      vertex 7.5 -3 0
      vertex -7.5 0 0
      vertex -4.15 0 0
    endloop
  endfacet
  facet normal 0 0 -1
    outer loop
      vertex 7.5 -3 0
      vertex -4.15 0 0
      vertex -2.25 1.9 0
    endloop
  endfacet
  facet normal 0 0 -1
    outer loop
      vertex 4.15 0 0
      vertex -2.25 1.9 0
      vertex 2.25 1.9 0
    endloop
  endfacet
  facet normal 0 0 -1
    outer loop
      vertex 7.5 -3 0
      vertex -2.25 1.9 0
      vertex 4.15 0 0
    endloop
  endfacet
  facet normal 0 0 -1
    outer loop
      vertex 7.5 0 0
      vertex 7.5 -3 0
      vertex 4.15 0 0
    endloop
  endfacet
  facet normal 0 1 0
    outer loop
      vertex -4.15 0 20
      vertex -4.15 0 0
      vertex -7.5 0 20
    endloop
  endfacet
  facet normal 0 1 0
    outer loop
      vertex -7.5 0 20
      vertex -4.15 0 0
      vertex -7.5 0 0
    endloop
  endfacet
  facet normal 0 0 1
    outer loop
      vertex -7.5 0 20
      vertex -7.5 -3 20
      vertex 7.5 -3 20
    endloop
  endfacet
  facet normal 0 0 1
    outer loop
      vertex -4.15 0 20
      vertex -7.5 0 20
      vertex 7.5 -3 20
    endloop
  endfacet
  facet normal 0 0 1
    outer loop
      vertex 4.15 0 20
      vertex -4.15 0 20
      vertex 7.5 -3 20
    endloop
  endfacet
  facet normal 0 0 1
    outer loop
      vertex 7.5 0 20
      vertex 4.15 0 20
      vertex 7.5 -3 20
    endloop
  endfacet
  facet normal 0 0 1
    outer loop
      vertex 2.25 1.9 20
      vertex -4.15 0 20
      vertex 4.15 0 20
    endloop
  endfacet
  facet normal 0 0 1
    outer loop
      vertex -2.25 1.9 20
      vertex -4.15 0 20
      vertex 2.25 1.9 20
    endloop
  endfacet
  facet normal 1 0 0
    outer loop
      vertex 7.5 -3 20
      vertex 7.5 -3 0
      vertex 7.5 0 0
    endloop
  endfacet
  facet normal 1 0 0
    outer loop
      vertex 7.5 0 20
      vertex 7.5 -3 20
      vertex 7.5 0 0
    endloop
  endfacet
  facet normal 0 1 0
    outer loop
      vertex 7.5 0 20
      vertex 7.5 0 0
      vertex 4.15 0 20
    endloop
  endfacet
  facet normal 0 1 0
    outer loop
      vertex 4.15 0 20
      vertex 7.5 0 0
      vertex 4.15 0 0
    endloop
  endfacet
  facet normal 0.707107 0.707107 0
    outer loop
      vertex 4.15 0 0
      vertex 2.25 1.9 0
      vertex 2.25 1.9 20
    endloop
  endfacet
  facet normal 0.707107 0.707107 0
    outer loop
      vertex 4.15 0 20
      vertex 4.15 0 0
      vertex 2.25 1.9 20
    endloop
  endfacet
  facet normal 0 1 0
    outer loop
      vertex -2.25 1.9 0
      vertex -2.25 1.9 20
      vertex 2.25 1.9 0
    endloop
  endfacet
  facet normal 0 1 0
    outer loop
      vertex 2.25 1.9 0
      vertex -2.25 1.9 20
      vertex 2.25 1.9 20
    endloop
  endfacet
  facet normal -0.707107 0.707107 0
    outer loop
      vertex -4.15 0 0
      vertex -4.15 0 20
      vertex -2.25 1.9 0
    endloop
  endfacet
  facet normal -0.707107 0.707107 0
    outer loop
      vertex -2.25 1.9 0
      vertex -4.15 0 20
      vertex -2.25 1.9 20
    endloop
  endfacet
endsolid OpenSCAD_Model
